<?xml version="1.0" encoding="utf-8"?>
<!-- Generator: Adobe Illustrator 19.0.0, SVG Export Plug-In . SVG Version: 6.00 Build 0)  -->
<svg version="1.1" id="Layer_1" xmlns="http://www.w3.org/2000/svg" xmlns:xlink="http://www.w3.org/1999/xlink" x="0px" y="0px"
	 viewBox="0 0 850.4 135.3" style="enable-background:new 0 0 850.4 135.3;" xml:space="preserve">
<style type="text/css">
	.st0{fill:#805CFF;}
	.st1{fill:none;}
	.st2{fill:#FFFFFF;}
	.st3{fill:#67E3B8;}
</style>
<g>
	<rect y="0" class="st0" width="850.4" height="135.3"/>
	<g>
		<path class="st1" d="M315.6,61.9c-3.7,0-7.1,1.5-9.5,4c-2.5,2.4-4,5.8-4,9.6c0,3.7,1.5,7.1,4,9.5c2.4,2.5,5.8,4,9.5,4
			c3.7,0,7.1-1.5,9.6-4c2.4-2.4,3.9-5.8,3.9-9.5c0-3.7-1.5-7.1-3.9-9.6C322.7,63.5,319.3,61.9,315.6,61.9z"/>
		<path class="st1" d="M113.1,64.4c-2.3-1.6-5.1-2.4-8.3-2.4c-1.6,0-3.1,0.2-4.5,0.7c-2.8,0.9-5.1,2.5-6.7,4.8
			c-0.8,1.1-1.4,2.3-1.8,3.7h26.1C117.1,68.3,115.4,66,113.1,64.4z"/>
		<path class="st1" d="M233.8,61.9c-3.7,0-7.1,1.5-9.5,4c-2.5,2.4-4,5.8-4,9.6c0,3.4,1.3,6.6,3.5,9c5.4-7.3,13.1-12.6,22.2-14.9
			c-0.7-1.4-1.5-2.6-2.6-3.7C240.9,63.5,237.5,61.9,233.8,61.9z"/>
		<g>
			<path class="st2" d="M55.7,100c1.3,0.2,2.6,0.3,3.9,0.3c6.5,0,12.7-2.3,17-6.7c0.5-0.5,0.9-1.1,1.3-1.8c-1.4-0.3-2.8-0.4-4.2-0.4
				C66.4,91.4,59.9,94.7,55.7,100z"/>
		</g>
		<g>
			<path class="st2" d="M48.9,83.9c-2-2.4-3.2-5.4-3.2-8.4c0-0.1,0-0.1-0.1-0.1l0.1-0.1c0-3.3,1.5-6.6,3.8-9.2
				c2.3-2.5,5.5-4.2,9.1-4.3c3.3-0.2,6.2,0.7,9.3,3.1c1.1,0.9,2.5,1.9,4,2.2c0.7,0.2,1.5,0.2,2.3,0c1.7-0.4,3.4-1.9,4-3.4
				c0.6-1.4,0.6-3-0.1-4.5c-0.4-0.8-0.8-1.5-1.5-2.2c-4.3-4.4-10.5-6.6-17-6.6c-6.9,0-13.2,2.7-17.8,7.2c-4.6,4.5-7.4,10.8-7.4,17.7
				h0.1l-0.1,0.1c0,6.5,2.5,12.4,6.7,16.7C43.3,89.2,45.9,86.3,48.9,83.9z"/>
		</g>
		<g>
			<path class="st2" d="M104.5,50.7c-6.9,0-13.1,2.8-17.6,7.2c-4.5,4.5-7.3,10.7-7.3,17.6c0,0.1,0,0.1,0,0.2c5,0.8,9.6,2.4,13.8,4.8
				h30.5c3.3,0,5.6-2.2,5.6-5.4c-0.2-6.8-2.9-13-7.4-17.4C117.5,53.4,111.3,50.7,104.5,50.7z M91.8,71.2c0.4-1.4,1-2.7,1.8-3.7
				c1.6-2.3,3.9-3.9,6.7-4.8c1.4-0.5,2.9-0.7,4.5-0.7c3.2,0,6,0.8,8.3,2.4c2.3,1.6,4,3.9,4.8,6.8H91.8z"/>
		</g>
		<g>
			<path class="st2" d="M114.2,98.7c2.5-1,4.4-2.3,5.9-3.7c1.3-1,1.9-2.4,2.1-3.7c0.2-1.3-0.2-2.7-0.9-3.7c-0.3-0.5-0.7-1-1.2-1.4
				c-0.9-0.9-2.3-1.5-4.2-1.2c-0.9,0.2-1.9,0.6-3,1.3c-2,1.9-4.8,2.8-8.4,2.8c-0.3,0-0.6,0-0.9-0.1c2.7,3.2,5,6.8,6.6,10.8
				C111.7,99.5,113,99.1,114.2,98.7z"/>
		</g>
		<g>
			<path class="st2" d="M132.8,49.9v33.4c0.1,4.8,2,8.9,5.2,11.8c3.1,2.9,7.3,4.5,12.1,4.5c3.3,0,5.6-2.3,5.6-5.5
				c0-1.5-0.6-3-1.6-4.1c-1-1-2.4-1.7-4-1.7c-3.5,0-5.9-1.8-5.9-5.4V63.2C139.4,59.7,135.5,55.2,132.8,49.9z"/>
		</g>
		<g>
			<path class="st2" d="M181.1,50.7c-0.2,0-0.4,0-0.6,0c-5.1,0-9.9,1.5-13.9,4.2c0.4,0,0.8,0.1,1.2,0.1
				C172.7,54.9,177.3,53.3,181.1,50.7z"/>
		</g>
		<g>
			<path class="st2" d="M189.3,64.7c2.1,1.6,3.7,3.8,4.4,6.5h-26.1c-4,0-7.8-0.6-11.5-1.7c-0.5,1.9-0.8,3.9-0.8,6
				c0,6.9,2.8,13,7.3,17.5c4.5,4.5,10.7,7.3,17.6,7.3c4,0,7.1-0.6,9.6-1.6c2.5-1,4.4-2.3,5.9-3.7c1.3-1,1.9-2.4,2.1-3.7
				c0.2-1.3-0.2-2.7-0.9-3.7c-0.3-0.5-0.7-1-1.2-1.4c-0.9-0.9-2.3-1.5-4.2-1.2c-0.9,0.2-1.9,0.6-3,1.3c-2,1.9-4.8,2.8-8.4,2.8
				c-2.9,0-5.5-0.8-7.6-2.3c-2.1-1.5-3.8-3.5-4.7-6.2h31.7c3.3,0,5.6-2.2,5.6-5.4c-0.2-6.8-2.9-13-7.4-17.4
				c-0.1-0.1-0.3-0.2-0.4-0.3C195.2,60.2,192.4,62.7,189.3,64.7z"/>
		</g>
		<g>
			<path class="st2" d="M261.2,85.4v8.7c0,1.6,0.7,3,1.7,4c1,1,2.5,1.6,4.1,1.6c1.5,0,2.9-0.6,3.8-1.6c1-1,1.6-2.3,1.6-4v-2
				C269.5,88.9,265.6,86.5,261.2,85.4z"/>
		</g>
		<g>
			<path class="st2" d="M276.9,66.8c2.7-2.7,6.3-4.3,10.3-4.3h0.1c1.6,0,3.1-0.6,4.2-1.7c1-1,1.7-2.4,1.7-4c0-3.3-2.1-5.6-5.9-5.6
				h-0.1c-7.1,0-13.6,2.9-18.3,7.6c-2.8,2.8-5,6.3-6.3,10.1c3.8,0.7,7.3,1.9,10.7,3.6C274,70.4,275.2,68.5,276.9,66.8z"/>
		</g>
		<g>
			<path class="st2" d="M315.6,50.7c-6.8,0-13,2.8-17.5,7.3c-4.5,4.5-7.3,10.7-7.3,17.5c0,6.8,2.8,13,7.3,17.5
				c4.5,4.5,10.7,7.3,17.5,7.3c5,0,9.7-1.9,13.7-4.8c0.6,2.4,2.6,4.2,5.3,4.2c1.6,0,3.1-0.7,4.1-1.7c1-1,1.7-2.4,1.7-4.1V75.5
				c0-6.9-2.8-13-7.2-17.5C328.7,53.4,322.5,50.7,315.6,50.7z M325.2,85c-2.4,2.5-5.8,4-9.6,4c-3.7,0-7.1-1.5-9.5-4
				c-2.5-2.4-4-5.8-4-9.5c0-3.7,1.5-7.1,4-9.6c2.4-2.4,5.8-4,9.5-4c3.7,0,7.1,1.5,9.6,4c2.4,2.4,3.9,5.8,3.9,9.6
				C329.1,79.2,327.6,82.5,325.2,85z"/>
		</g>
		<path class="st3" d="M55.7,100c4.3-5.2,10.7-8.5,18-8.5c1.4,0,2.9,0.2,4.2,0.4c0.5-0.9,0.7-1.8,0.8-2.8c0-1.6-0.6-3-1.8-4.1
			c-1.9-1.6-3.5-1.9-5-1.5c-1.5,0.4-2.9,1.4-4,2.2c-3.1,2.4-6,3.4-9.3,3.2c-3.6-0.1-6.8-1.8-9.1-4.4c-0.2-0.2-0.4-0.4-0.6-0.7
			c-3,2.4-5.6,5.3-7.8,8.5c0.2,0.3,0.5,0.5,0.7,0.8C45.5,96.7,50.3,99.1,55.7,100z"/>
		<path class="st3" d="M103.6,89c-2.9-3.4-6.3-6.2-10.2-8.5c-4.2-2.4-8.8-4.1-13.8-4.8c0.1,6.8,2.8,12.8,7.3,17.3
			c4.5,4.5,10.7,7.3,17.6,7.3c2.1,0,4-0.2,5.7-0.5C108.6,95.8,106.4,92.2,103.6,89z"/>
		<path class="st3" d="M142.3,34.2c-1.1-1-2.6-1.6-4.1-1.6c-1.5,0-2.9,0.6-3.8,1.6c-1,1-1.6,2.4-1.6,4.1v11.7
			c2.7,5.2,6.6,9.7,11.3,13.3V38.3C144.1,36.7,143.4,35.3,142.3,34.2z"/>
		<path class="st3" d="M167.7,54.9c-0.4,0-0.8,0-1.2-0.1c-1.3,0.9-2.6,1.9-3.7,3c-3.2,3.1-5.4,7.1-6.6,11.6
			c3.6,1.1,7.5,1.7,11.5,1.7c0.4-1.4,1-2.7,1.8-3.7c1.6-2.3,3.9-3.9,6.7-4.8c1.4-0.5,2.9-0.7,4.5-0.7c3.2,0,6,0.8,8.3,2.4
			c0.1,0.1,0.2,0.2,0.3,0.3c3.1-2,5.8-4.5,8.2-7.2c-4.4-4-10.1-6.6-16.5-6.8C177.3,53.3,172.7,54.9,167.7,54.9z"/>
		<path class="st3" d="M223.8,84.5c0.2,0.2,0.3,0.4,0.5,0.5c2.4,2.5,5.8,4,9.5,4c3.7,0,7.1-1.5,9.6-4c2.4-2.4,3.9-5.8,3.9-9.5
			c0-2.1-0.5-4.1-1.3-5.9C236.9,71.9,229.1,77.2,223.8,84.5z"/>
		<path class="st2" d="M257.5,68.5c0,0-0.1,0-0.1,0C257.5,68.5,257.5,68.5,257.5,68.5c-1.2-4.1-3.3-7.7-6.2-10.6
			c-4.5-4.5-10.7-7.2-17.5-7.2c-5,0-9.6,1.5-13.5,4.1V38.5c0-1.7-0.6-3.1-1.6-4.2c-1-1-2.4-1.7-4.1-1.7c-1.6,0-3,0.6-4,1.7
			c-1,1.1-1.7,2.5-1.7,4.2v37c0,6.8,2.8,13,7.3,17.5c0.6,0.6,1.3,1.2,2,1.8c0,0,0,0,0,0c4.2,3.4,9.5,5.4,15.3,5.5c0.1,0,0.1,0,0.2,0
			c3.4,0,6.7-0.7,9.7-2c6-2.5,10.6-7.2,13.2-13.2c0.1-0.1,0.1-0.3,0.1-0.4c1.2-2.9,1.8-6,1.8-9.2C258.5,73.1,258.2,70.7,257.5,68.5z
			 M245.9,69.6c0.8,1.8,1.3,3.8,1.3,5.9c0,3.7-1.5,7.1-3.9,9.5c-2.5,2.5-5.8,4-9.6,4c-3.7,0-7.1-1.5-9.5-4c-0.2-0.2-0.3-0.4-0.5-0.5
			c-2.2-2.4-3.5-5.5-3.5-9c0-3.7,1.5-7.1,4-9.6c2.4-2.4,5.8-4,9.5-4c3.7,0,7.1,1.5,9.6,4C244.4,67,245.3,68.2,245.9,69.6"/>
		<path class="st3" d="M261.2,85.4c4.4,1.1,8.3,3.5,11.3,6.7V77.1c0-1.6,0.3-3.1,0.7-4.5c-3.3-1.7-6.9-2.9-10.7-3.6
			c-0.9,2.6-1.4,5.4-1.4,8.2V85.4z"/>
		<g>
			<path class="st1" d="M591.4,62c-3.7,0-7.1,1.5-9.5,4c-0.7,0.7-1.3,1.4-1.8,2.2c4.9-0.7,9.2-2.9,12.6-6.1
				C592.3,62,591.9,62,591.4,62z"/>
			<path class="st1" d="M581.3,84.4c0.2,0.2,0.4,0.4,0.6,0.6c2.4,2.5,5.8,4,9.5,4c3.7,0,7.1-1.5,9.6-4c2.4-2.4,3.9-5.8,3.9-9.5
				c0-0.8-0.1-1.6-0.2-2.4C598.6,79.3,590.4,83.4,581.3,84.4z"/>
			<path class="st1" d="M453.8,64.5c-2.3-1.6-5.1-2.4-8.3-2.4c-1.6,0-3.1,0.2-4.5,0.7c-2.8,0.9-5.1,2.5-6.7,4.8
				c-0.8,1.1-1.4,2.3-1.8,3.7h6.8c4.9-2.8,10.5-4.5,16.5-4.9C455.2,65.7,454.5,65,453.8,64.5z"/>
			<g>
				<path class="st2" d="M422.6,57c0-3.3-2.1-5.6-5.9-5.6h-0.1c-7.1,0-13.6,2.9-18.3,7.6c-4.7,4.7-7.6,11.2-7.6,18.4v16.8
					c0,1.6,0.7,3,1.7,4c1,1,2.5,1.6,4.1,1.6c1.5,0,2.9-0.6,3.8-1.6c1-1,1.6-2.3,1.6-4v-17c0-4,1.7-7.6,4.4-10.3
					c2.7-2.7,6.3-4.3,10.3-4.3h0.1c1.6,0,3.1-0.6,4.2-1.7C421.9,60,422.6,58.6,422.6,57z"/>
			</g>
			<g>
				<path class="st2" d="M439.3,71.2h-6.8c0.4-1.4,1-2.7,1.8-3.7c1.6-2.3,3.9-3.9,6.7-4.8c1.4-0.5,2.9-0.7,4.5-0.7
					c3.2,0,6,0.8,8.3,2.4c0.8,0.5,1.4,1.2,2.1,1.9c0.9-0.1,1.8-0.1,2.7-0.1c3.6,0,7,0.5,10.3,1.4c-1.3-3.7-3.3-7.1-6.1-9.7
					c-4.6-4.4-10.7-7.1-17.5-7.1c-6.9,0-13.1,2.8-17.6,7.2c-4.5,4.5-7.3,10.7-7.3,17.6c0,4.4,1.2,8.5,3.2,12.1
					C427,80.7,432.6,75,439.3,71.2z"/>
			</g>
			<g>
				<path class="st2" d="M454.8,98.7c2.5-1,4.4-2.3,5.9-3.7c1.3-1,1.9-2.4,2.1-3.7c0.2-1.3-0.2-2.7-0.9-3.7c-0.3-0.5-0.7-1-1.2-1.4
					c-0.9-0.9-2.3-1.5-4.2-1.2c-0.9,0.2-1.9,0.6-3,1.3c-2,1.9-4.8,2.8-8.4,2.8c-0.9,0-1.8-0.1-2.6-0.3c-2.8,2.7-5,6.1-6.2,9.9
					c2.7,1,5.7,1.6,8.8,1.6C449.1,100.4,452.3,99.7,454.8,98.7z"/>
			</g>
			<g>
				<path class="st2" d="M495.9,50.7c-6.6,0-12.5,2.7-16.6,7c-3,3.1-5.1,7-6.1,11.3c3.9,1.5,7.5,3.7,10.6,6.3v-0.7
					c0-3.5,1.3-6.7,3.4-9c2.1-2.3,5.1-3.6,8.7-3.6c3.4,0,6.4,1.4,8.5,3.6c2.1,2.2,3.4,5.3,3.6,8.7c-0.1,0.2-0.1,0.4-0.1,0.6v19.4
					c0,1.6,0.7,3,1.7,4c1,1,2.4,1.6,4.1,1.6c1.5,0,2.9-0.6,3.9-1.6c1-1,1.6-2.3,1.6-4V74.7c0-6.7-2.5-12.6-6.7-17
					C508.4,53.4,502.5,50.7,495.9,50.7z"/>
			</g>
			<g>
				<path class="st2" d="M474.3,98.2c1,1,2.5,1.6,4,1.6c0.9,0,1.8-0.2,2.6-0.6c-1.4-4.9-4.4-9.1-8.3-12.1v7.1
					C472.5,95.9,473.2,97.2,474.3,98.2z"/>
			</g>
			<g>
				<path class="st2" d="M535.8,51.4v-13c0-1.6-0.6-3-1.6-4.1c-1-1-2.4-1.7-4-1.7c-1.6,0-3,0.6-4.1,1.7c-1,1-1.7,2.4-1.7,4.1v37.3
					c0,6.9,2.8,13.1,7.3,17.5c4.5,4.4,10.7,7.2,17.5,7.2c6.2,0,11.8-2.1,15.9-6.1c1.2-1.2,2-2.8,2.1-4.4c0.1-1.6-0.4-3.1-1.7-4.3
					c-1.7-1.5-3.6-1.7-5.4-1c-1,0.4-1.6,0.9-2.4,1.6c-2.4,2.1-5.3,3-8.6,3c-3.7,0-7.1-1.5-9.6-3.9c-2.4-2.4-4-5.7-4-9.4V62.6h5.6
					c-1.7-3.5-2.9-7.3-3.6-11.3H535.8z"/>
			</g>
			<g>
				<path class="st2" d="M559.1,54.9c-0.6-1.4-1.7-2.4-3.1-3.1c-0.5-0.2-1.1-0.4-1.7-0.4c0.9,3.2,2.4,6,4.4,8.5
					c0.5-0.8,0.8-1.8,0.8-2.8C559.6,56.3,559.5,55.6,559.1,54.9z"/>
			</g>
			<path class="st3" d="M468.8,67.6c-3.3-0.9-6.7-1.4-10.3-1.4c-0.9,0-1.8,0.1-2.7,0.1c-6,0.4-11.6,2.1-16.5,4.9
				c-6.8,3.8-12.3,9.5-15.8,16.4c1.1,2,2.5,3.8,4.1,5.4c2.5,2.5,5.5,4.4,8.8,5.7c1.2-3.8,3.4-7.2,6.2-9.9c-1.8-0.3-3.5-1-5-2.1
				c-2.1-1.5-3.8-3.5-4.7-6.2h31.7c3.3,0,5.6-2.2,5.6-5.4C470.1,72.6,469.6,70,468.8,67.6z"/>
			<path class="st3" d="M557.9,61c0.3-0.3,0.6-0.7,0.8-1.1c-2-2.5-3.5-5.4-4.4-8.5c-0.2,0-0.3-0.1-0.5-0.1h-16
				c0.6,4,1.8,7.8,3.6,11.3h12.5C555.5,62.6,556.9,62,557.9,61z"/>
			<g>
				<path class="st2" d="M612.3,62.2c-1-1.5-2.1-2.9-3.3-4.2c-2.8-2.8-6.2-4.9-10-6.1c-2.4-0.8-4.9-1.2-7.6-1.2
					c-6.8,0-13,2.8-17.5,7.3c-2.5,2.5-4.4,5.5-5.7,8.8c2.6,1,5.5,1.6,8.5,1.6c1.1,0,2.2-0.1,3.3-0.3c0.5-0.8,1.1-1.6,1.8-2.2
					c2.4-2.4,5.8-4,9.5-4c0.4,0,0.9,0,1.3,0.1c3.2,0.3,6.1,1.7,8.3,3.9c1.9,1.9,3.2,4.4,3.7,7.1c0.1,0.8,0.2,1.6,0.2,2.4
					c0,3.7-1.5,7.1-3.9,9.5c-2.4,2.5-5.8,4-9.6,4c-3.7,0-7.1-1.5-9.5-4c-0.2-0.2-0.4-0.4-0.6-0.6c-1.5,0.2-3,0.3-4.6,0.3
					c-3,0-5.9-0.4-8.7-1c1.3,3.5,3.3,6.7,5.9,9.4c4.5,4.5,10.7,7.3,17.5,7.3c5,0,9.7-1.9,13.7-4.8c0.6,2.4,2.6,4.2,5.3,4.2
					c1.6,0,3.1-0.7,4.1-1.7c1-1,1.7-2.4,1.7-4.1V75.5C616.2,70.6,614.8,66.1,612.3,62.2z"/>
			</g>
			<path class="st3" d="M601,66c-2.2-2.2-5.1-3.6-8.3-3.9c-3.4,3.2-7.8,5.4-12.6,6.1c-1.1,0.2-2.2,0.3-3.3,0.3c-3,0-5.9-0.6-8.5-1.6
				c-1,2.7-1.6,5.6-1.6,8.7c0,2.9,0.5,5.6,1.4,8.2c2.8,0.6,5.7,1,8.7,1c1.5,0,3.1-0.1,4.6-0.3c9.1-1,17.2-5.2,23.4-11.3
				C604.2,70.3,602.9,67.9,601,66z"/>
			<g>
				<path class="st3" d="M472.5,74.6v12.5c4,3,7,7.2,8.4,12.1c0.5-0.3,1-0.6,1.4-1c1-1,1.6-2.4,1.6-4v-19c-3.2-2.6-6.8-4.8-10.7-6.3
					C472.7,70.8,472.5,72.6,472.5,74.6z"/>
			</g>
		</g>
		<g>
			<g>
				<g>
					<g>
						<path class="st2" d="M352.6,103.5c-1.7-0.5-3.6-2-3.6-4.8c0-1.6,0.8-3.1,2.1-3.9c0.9-0.6,1.9-0.8,3-0.7c1.9,0.2,4.2,0.6,6-0.1
							c2.1-0.8,2.5-3.1,2.5-3.1l-13.8-32c-0.3-0.8-0.6-1.9-0.6-2.6c0-3.2,2.5-5.5,5.7-5.5c2.9,0,4.5,1.6,5.5,4.3l8.8,23.6l8.5-23.5
							c0.9-2.4,2.6-4.4,5.5-4.4c2.9,0,5.4,2.3,5.4,5.3c0,0.9-0.3,2.2-0.5,2.7l-14.1,33.9c-3.4,8.2-6.8,11.3-13.7,11.3
							C356.7,104,354.7,104.1,352.6,103.5z"/>
					</g>
				</g>
			</g>
		</g>
		<g>
			<g>
				<path class="st2" d="M634.4,73.4c1.3,1.2,2,2.9,2,4.7c0,1.8-0.8,3.5-2,4.7c-1.3,1.2-3.1,2-5,2c-1.9,0-3.7-0.7-5-2
					c-1.3-1.2-2.1-2.9-2.1-4.7c0-1.8,0.8-3.5,2.1-4.7c1.3-1.2,3-1.9,5-1.9C631.3,71.5,633,72.2,634.4,73.4z"/>
			</g>
			<g>
				<path class="st2" d="M681.2,63c-0.4-0.3-0.8-0.5-1.2-0.8c-3.7-3.1-8-4.5-12.8-4.4c-5.1,0.1-9.7,2.2-13.1,5.5
					c-3.4,3.3-5.4,7.7-5.4,12.4l-0.1,0.2c0,0.1,0,0.1,0.1,0.1V76c0,0.1,0,0.1,0.1,0.1c0,4.6,2,9,5.3,12.3c3.3,3.3,7.9,5.5,13.2,5.6
					c4.8,0.1,9.1-1.4,12.8-4.5c0.7-0.6,1.6-1.2,2.5-1.4c0.9-0.2,2-0.1,3.2,0.9c1.5,1.3,1.5,3.5-0.2,5.1c-2.2,2.1-5,3.7-8,4.9
					c-3.1,1.1-6.5,1.8-9.8,1.8c-7.2,0-13.8-2.8-18.5-7.2c-4.8-4.4-7.7-10.5-7.7-17.4l0.1-0.3c-0.1,0-0.1-0.1-0.1-0.1
					c0-0.1,0-0.1-0.1-0.1c0-6.9,3-13,7.7-17.5c4.8-4.5,11.3-7.2,18.5-7.2c6.8,0,13.4,2.3,17.8,6.4c0.8,0.8,1.3,1.7,1.3,2.7
					c0,2-1.8,3.2-2.8,3.4C683,63.8,682,63.6,681.2,63z"/>
			</g>
			<g>
				<path class="st2" d="M691.8,85.5c-1.4-3-2.1-6.2-2.1-9.6c0-6.9,2.9-13.1,7.7-17.6c4.8-4.5,11.4-7.2,18.6-7.2
					c7.3,0,13.9,2.8,18.6,7.2c4.8,4.5,7.7,10.8,7.7,17.6c0,6.8-2.9,13-7.7,17.5c-4.8,4.5-11.3,7.3-18.6,7.3c-3.6,0-7-0.7-10.2-2
					C699.4,96.1,694.5,91.6,691.8,85.5z M696.9,75.9c0,4.9,2.1,9.4,5.6,12.6c3.5,3.3,8.3,5.4,13.6,5.4c5.4,0,10.2-2,13.7-5.4
					c3.4-3.3,5.5-7.7,5.5-12.6c0-5-2.1-9.5-5.5-12.8c-3.4-3.3-8.2-5.2-13.6-5.2c-5.3,0-10.1,2-13.6,5.2
					C699,66.4,696.9,70.9,696.9,75.9z"/>
			</g>
			<g>
				<path class="st2" d="M746.3,68.3c0-4.7,2.2-9,5.7-12.2c3.5-3.1,8.1-5,13.2-5c6.3,0,11.8,2.9,15.3,7.3c1.8-2.1,4.1-4,6.8-5.3
					c2.7-1.2,5.6-2,8.7-2c5,0,9.6,1.8,13,4.8c3.3,3,5.5,7.2,5.8,11.8c0.1,0.1,0.1,0.3,0.1,0.5v28.4c0,1.9-1.6,3.4-3.5,3.4
					s-3.7-1.5-3.7-3.4V68c-0.2-2.9-1.5-5.4-3.7-7.2c-2.2-1.8-5.1-2.9-8-2.9c-3.1,0-6,1.2-8.1,3.1c-2.1,1.9-3.6,4.5-3.7,7.2v28.5
					c0,1.9-1.6,3.4-3.5,3.4c-1.9,0-3.7-1.5-3.7-3.4V68.3c0-3-1.4-5.6-3.5-7.4c-2.2-1.9-5-3-8.1-3c-3.1,0-6,1.1-8.1,3
					c-2.1,1.9-3.6,4.4-3.7,7.2v28.6c0,1.9-1.6,3.4-3.5,3.4s-3.7-1.5-3.7-3.4V68.3z"/>
			</g>
		</g>
	</g>
</g>
</svg>
