<?xml version="1.0" encoding="utf-8"?>
<!-- Generator: Adobe Illustrator 19.0.0, SVG Export Plug-In . SVG Version: 6.00 Build 0)  -->
<svg version="1.1" id="Layer_1" xmlns="http://www.w3.org/2000/svg" xmlns:xlink="http://www.w3.org/1999/xlink" x="0px" y="0px"
	 viewBox="0 0 700.2 424.7" style="enable-background:new 0 0 700.2 424.7;" xml:space="preserve">
<style type="text/css">
	.st0{fill:#F8F8F8;}
	.st1{fill:none;}
	.st2{fill:#7B5CFF;}
	.st3{fill:#67E3B8;}
	.st4{fill:#805CFF;}
</style>
<g>
	<rect y="0.9" class="st0" width="700.2" height="422.8"/>
	<path class="st1" d="M600.2,110.8c-7.2,0-13.8,2.9-18.6,7.7c-4.9,4.8-7.8,11.4-7.8,18.7c0,7.2,2.9,13.8,7.8,18.6
		c4.8,4.9,11.3,7.8,18.6,7.8c7.3,0,13.9-2.9,18.7-7.8c4.8-4.8,7.6-11.4,7.6-18.6c0-7.3-2.8-13.9-7.6-18.7
		C614.1,113.7,607.5,110.8,600.2,110.8z"/>
	<path class="st1" d="M205,115.5c-4.5-3.1-10.1-4.8-16.2-4.8c-3.1,0-6,0.4-8.7,1.3c-5.5,1.7-9.9,4.9-13.1,9.3
		c-1.5,2.1-2.7,4.6-3.5,7.3h50.9C212.8,123.1,209.4,118.7,205,115.5z"/>
	<path class="st1" d="M440.5,110.8c-7.3,0-13.8,2.9-18.6,7.7c-4.9,4.8-7.8,11.4-7.8,18.7c0,6.7,2.6,12.9,6.9,17.5
		c10.5-14.2,25.7-24.6,43.3-29c-1.3-2.7-3-5.1-5.1-7.2C454.3,113.7,447.8,110.8,440.5,110.8z"/>
	<path class="st2" d="M92.9,184.9c2.5,0.4,5.1,0.6,7.7,0.6c12.7,0,24.8-4.6,33.2-13.1c1-1,1.8-2.2,2.5-3.4c-2.7-0.5-5.4-0.8-8.3-0.8
		C113.8,168.3,101.2,174.8,92.9,184.9z"/>
	<path class="st2" d="M79.7,153.6c-3.9-4.7-6.2-10.5-6.2-16.4c0-0.1,0-0.1-0.1-0.1l0.1-0.1c0-6.5,2.8-12.9,7.4-17.9
		c4.5-4.9,10.8-8.1,17.7-8.4c6.5-0.3,12.2,1.3,18.2,6.1c2.1,1.7,4.9,3.7,7.8,4.4c1.4,0.4,2.9,0.4,4.6,0c3.2-0.7,6.6-3.8,7.8-6.6
		c1.2-2.7,1.1-5.9-0.2-8.8c-0.7-1.5-1.6-2.9-2.9-4.3c-8.4-8.5-20.5-12.8-33.2-12.8c-13.5,0-25.8,5.3-34.7,14
		c-8.9,8.7-14.4,21-14.4,34.5h0.1l-0.1,0.2c0,12.7,4.9,24.2,13,32.7C68.7,163.9,73.9,158.4,79.7,153.6z"/>
	<path class="st2" d="M188.2,88.7c-13.4,0-25.5,5.4-34.3,14.1c-8.8,8.7-14.3,20.9-14.3,34.3c0,0.1,0,0.3,0,0.4
		c9.7,1.5,18.8,4.7,27,9.5h59.5c6.5,0,10.9-4.3,10.9-10.5c-0.3-13.3-5.7-25.3-14.5-33.9C213.5,94.1,201.5,88.7,188.2,88.7z
		 M163.4,128.7c0.7-2.7,1.9-5.2,3.5-7.3c3.1-4.5,7.6-7.6,13.1-9.3c2.7-0.9,5.6-1.3,8.7-1.3c6.2,0,11.8,1.6,16.2,4.8
		c4.5,3.1,7.8,7.6,9.3,13.2H163.4z"/>
	<path class="st2" d="M207,182.4c4.9-1.9,8.6-4.5,11.6-7.2c2.5-2,3.8-4.7,4.2-7.2c0.3-2.5-0.4-5.2-1.7-7.3c-0.6-1-1.4-1.9-2.3-2.7
		c-1.7-1.7-4.6-2.8-8.2-2.3c-1.8,0.3-3.8,1.1-5.8,2.5c-4,3.7-9.4,5.5-16.4,5.5c-0.6,0-1.2-0.1-1.8-0.1c5.3,6.2,9.7,13.3,12.9,21.1
		C202.1,184,204.7,183.3,207,182.4z"/>
	<path class="st2" d="M243.3,87.3v65.2c0.1,9.4,4,17.5,10.1,23c6.1,5.6,14.3,8.8,23.6,8.8c6.4,0,10.9-4.6,10.9-10.8
		c0-2.9-1.1-5.8-3-7.9c-2-2-4.7-3.3-7.8-3.3c-6.8,0-11.6-3.6-11.6-10.6v-38.5C256.2,106.3,248.7,97.5,243.3,87.3z"/>
	<path class="st2" d="M337.6,88.8c-0.4,0-0.8-0.1-1.2-0.1c-10,0-19.3,3-27.1,8.2c0.8,0,1.5,0.1,2.3,0.1
		C321.2,97.1,330.2,94,337.6,88.8z"/>
	<path class="st2" d="M353.7,116.1c4.1,3.1,7.2,7.4,8.7,12.6h-50.9c-7.8,0-15.3-1.2-22.4-3.3c-0.9,3.8-1.5,7.7-1.5,11.7
		c0,13.4,5.5,25.4,14.3,34.2c8.8,8.8,20.9,14.2,34.3,14.2c7.7,0,13.8-1.2,18.8-3.1c4.9-1.9,8.6-4.5,11.6-7.2c2.5-2,3.8-4.7,4.2-7.2
		c0.3-2.5-0.4-5.2-1.7-7.3c-0.6-1-1.4-1.9-2.3-2.7c-1.7-1.7-4.6-2.8-8.2-2.3c-1.8,0.3-3.8,1.1-5.8,2.5c-4,3.7-9.4,5.5-16.4,5.5
		c-5.6,0-10.7-1.6-14.8-4.6c-4.2-2.8-7.5-6.9-9.2-12.1h61.9c6.5,0,10.9-4.3,10.9-10.5c-0.3-13.3-5.7-25.3-14.5-33.9
		c-0.2-0.2-0.5-0.4-0.7-0.7C365.1,107.4,359.7,112.2,353.7,116.1z"/>
	<path class="st2" d="M494,156.5v17c0,3.1,1.3,5.8,3.4,7.7c2,1.9,4.9,3.1,8,3.1c2.9,0,5.6-1.2,7.5-3.1c1.9-1.9,3.1-4.6,3.1-7.7v-3.9
		C510.2,163.3,502.6,158.7,494,156.5z"/>
	<path class="st2" d="M524.5,120.3c5.2-5.2,12.4-8.3,20.1-8.3h0.2c3.1,0,6-1.2,8.1-3.2c2-1.9,3.4-4.7,3.4-7.8c0-6.4-4.2-11-11.5-11
		h-0.2c-13.8,0-26.5,5.7-35.7,14.9c-5.5,5.5-9.7,12.3-12.3,19.8c7.4,1.3,14.3,3.7,20.8,7C518.9,127.3,521.4,123.5,524.5,120.3z"/>
	<path class="st2" d="M600.2,88.7c-13.3,0-25.3,5.4-34.1,14.2c-8.8,8.8-14.3,20.8-14.3,34.2c0,13.3,5.5,25.4,14.3,34.2
		c8.8,8.8,20.8,14.2,34.1,14.2c9.8,0,19-3.7,26.7-9.4c1.2,4.8,5.1,8.2,10.4,8.2c3.1,0,6-1.3,8-3.3c2-2,3.2-4.8,3.2-7.9v-35.9
		c0-13.4-5.4-25.4-14.1-34.2C625.6,94.1,613.6,88.7,600.2,88.7z M618.8,155.7c-4.8,4.9-11.4,7.8-18.7,7.8c-7.3,0-13.8-2.9-18.6-7.8
		c-4.9-4.8-7.8-11.4-7.8-18.6c0-7.3,2.9-13.9,7.8-18.7c4.8-4.8,11.4-7.7,18.6-7.7c7.3,0,13.9,2.9,18.7,7.7
		c4.8,4.8,7.6,11.4,7.6,18.7C626.4,144.4,623.6,151,618.8,155.7z"/>
	<path class="st3" d="M92.9,184.9c8.3-10.2,20.9-16.7,35.1-16.7c2.8,0,5.6,0.3,8.3,0.8c0.9-1.7,1.4-3.6,1.5-5.4c0-3-1.1-5.9-3.5-7.9
		c-3.7-3.1-6.9-3.7-9.7-2.9c-2.9,0.7-5.7,2.6-7.8,4.4c-6,4.8-11.7,6.6-18.2,6.3c-7-0.1-13.3-3.6-17.8-8.5c-0.4-0.4-0.7-0.8-1.1-1.3
		c-5.9,4.7-11,10.3-15.3,16.5c0.5,0.5,0.9,1,1.4,1.5C73.1,178.6,82.5,183.3,92.9,184.9z"/>
	<path class="st3" d="M186.4,163.5c-5.6-6.6-12.3-12.1-19.9-16.5c-8.2-4.7-17.3-8-27-9.5c0.1,13.2,5.5,25.1,14.3,33.8
		c8.8,8.8,20.9,14.2,34.3,14.2c4.1,0,7.8-0.4,11.1-1C196.1,176.8,191.8,169.8,186.4,163.5z"/>
	<path class="st3" d="M262,56.7c-2.1-1.9-5.1-3.1-8-3.1c-2.9,0-5.6,1.2-7.5,3.1c-2,2-3.1,4.8-3.1,7.9v22.8c5.3,10.2,12.9,19,22,25.9
		V64.6C265.4,61.4,264,58.7,262,56.7z"/>
	<path class="st3" d="M311.5,97.1c-0.8,0-1.5-0.1-2.3-0.1c-2.6,1.7-5,3.7-7.2,5.9c-6.2,6.1-10.6,13.9-12.8,22.6
		c7.1,2.1,14.6,3.3,22.4,3.3c0.7-2.7,1.9-5.2,3.5-7.3c3.1-4.5,7.6-7.6,13.1-9.3c2.7-0.9,5.6-1.3,8.7-1.3c6.2,0,11.8,1.6,16.2,4.8
		c0.2,0.2,0.4,0.4,0.7,0.6c6-3.9,11.4-8.7,16-14.1c-8.6-7.9-19.8-12.9-32.2-13.2C330.2,94,321.2,97.1,311.5,97.1z"/>
	<path class="st3" d="M420.9,154.7c0.3,0.3,0.6,0.7,1,1c4.8,4.9,11.3,7.8,18.6,7.8c7.3,0,13.8-2.9,18.7-7.8
		c4.8-4.8,7.6-11.4,7.6-18.6c0-4.1-0.9-8-2.6-11.4C446.6,130.1,431.4,140.5,420.9,154.7z"/>
	<path class="st2" d="M488.8,137.2c0-4.7-0.7-9.3-1.9-13.6c-2.3-7.9-6.5-15.1-12.2-20.7c-8.7-8.7-20.8-14.1-34.2-14.1
		c-9.7,0-18.7,2.9-26.4,7.9V65c0-3.2-1.1-6.1-3-8.2c-2-2-4.7-3.2-7.9-3.2c-3.1,0-5.9,1.2-7.8,3.2c-2,2.1-3.2,5-3.2,8.2v72.2
		c0,13.3,5.4,25.4,14.2,34.2c1.3,1.3,2.6,2.4,4,3.5c8.2,6.6,18.6,10.6,29.8,10.7l0,0c0.1,0,0.3,0,0.4,0c6.7,0,13-1.3,18.9-3.9
		c11.7-5,20.6-14,25.7-25.8c0.1-0.3,0.2-0.5,0.3-0.8c0,0,0,0,0,0C487.6,149.5,488.8,143.5,488.8,137.2z M420.9,154.7
		c-4.3-4.7-6.9-10.8-6.9-17.5c0-7.3,2.9-13.9,7.8-18.7c4.8-4.8,11.3-7.7,18.6-7.7c7.3,0,13.8,2.9,18.7,7.7c2.1,2.1,3.8,4.5,5.1,7.2
		c1.6,3.5,2.6,7.3,2.6,11.4c0,7.2-2.8,13.8-7.6,18.6c-4.9,4.9-11.4,7.8-18.7,7.8c-7.3,0-13.8-2.9-18.6-7.8
		C421.6,155.4,421.2,155,420.9,154.7z"/>
	<path class="st3" d="M494,156.5c8.6,2.2,16.2,6.8,22,13.1v-29.2c0-3.1,0.5-6,1.5-8.8c-6.5-3.3-13.5-5.7-20.8-7
		c-1.7,5.1-2.7,10.4-2.7,16.1V156.5z"/>
	<g>
		<path class="st1" d="M600.2,235c-7.2,0-13.8,2.9-18.6,7.7c-1.3,1.3-2.5,2.8-3.6,4.4c9.5-1.4,18-5.7,24.6-11.9
			C601.8,235.1,601,235,600.2,235z"/>
		<path class="st1" d="M580.4,278.8c0.4,0.4,0.8,0.9,1.2,1.3c4.8,4.9,11.3,7.8,18.6,7.8c7.3,0,13.9-2.9,18.7-7.8
			c4.8-4.8,7.6-11.4,7.6-18.6c0-1.6-0.2-3.2-0.4-4.8C614,268.7,598.1,276.7,580.4,278.8z"/>
		<path class="st1" d="M331.4,239.8c-4.5-3.1-10-4.8-16.2-4.8c-3.1,0-6,0.4-8.7,1.3c-5.5,1.7-10,4.9-13.1,9.3
			c-1.5,2.1-2.7,4.6-3.5,7.3h13.3c9.6-5.4,20.6-8.7,32.2-9.5C334.3,242.1,333,240.9,331.4,239.8z"/>
		<path class="st2" d="M270.6,225.2c0-6.4-4.2-11-11.5-11H259c-13.8,0-26.5,5.7-35.7,14.9c-9.2,9.2-14.9,21.9-14.9,35.8v32.8
			c0,3.1,1.3,5.8,3.4,7.7c2,1.9,4.9,3.1,8,3.1c2.9,0,5.6-1.2,7.5-3.1c1.9-1.9,3.1-4.6,3.1-7.7v-33.1c0-7.8,3.4-14.9,8.5-20.1
			c5.2-5.2,12.4-8.3,20.1-8.3h0.2c3.1,0,6-1.2,8.1-3.2C269.3,231.1,270.6,228.3,270.6,225.2z"/>
		<path class="st2" d="M303.3,253h-13.3c0.7-2.7,1.9-5.2,3.5-7.3c3.1-4.5,7.6-7.6,13.1-9.3c2.7-0.9,5.6-1.3,8.7-1.3
			c6.2,0,11.8,1.6,16.2,4.8c1.5,1.1,2.8,2.3,4,3.7c1.8-0.1,3.5-0.3,5.3-0.3c6.9,0,13.6,1,20,2.7c-2.5-7.3-6.5-13.8-11.9-19
			C340,218.4,328,213,314.7,213c-13.4,0-25.5,5.4-34.3,14.1c-8.8,8.7-14.3,20.9-14.3,34.3c0,8.6,2.3,16.7,6.3,23.6
			C279.3,271.6,290.1,260.4,303.3,253z"/>
		<path class="st2" d="M333.5,306.7c4.9-1.9,8.6-4.5,11.6-7.2c2.5-2,3.8-4.7,4.2-7.2c0.3-2.5-0.4-5.2-1.7-7.3
			c-0.6-1-1.4-1.9-2.3-2.7c-1.7-1.7-4.6-2.8-8.2-2.3c-1.8,0.3-3.8,1.1-5.8,2.5c-4,3.7-9.4,5.5-16.4,5.5c-1.8,0-3.4-0.2-5.1-0.5
			c-5.5,5.2-9.7,11.8-12.1,19.3c5.3,2,11.1,3.2,17.1,3.2C322.4,309.9,328.5,308.6,333.5,306.7z"/>
		<path class="st2" d="M413.7,213c-12.9,0-24.4,5.2-32.5,13.6c-5.8,6-10,13.6-11.9,22.1c7.6,3,14.6,7.2,20.7,12.3v-1.3
			c0-6.9,2.5-13.1,6.7-17.6c4.1-4.5,10-7.1,17-7.1c6.6,0,12.5,2.6,16.6,7c4.1,4.4,6.7,10.4,7,17c-0.1,0.3-0.1,0.7-0.1,1.2V298
			c0,3.1,1.3,5.8,3.4,7.7c2,2,4.8,3.1,7.9,3.1c2.9,0,5.7-1.1,7.6-3.1c1.9-1.9,3.1-4.6,3.1-7.7v-38.3c0-13-5-24.6-13.1-33.1
			C438,218.2,426.7,213,413.7,213z"/>
		<path class="st2" d="M371.4,305.7c2,2,4.9,3.1,7.8,3.1c1.8,0,3.5-0.5,5-1.2c-2.8-9.5-8.5-17.7-16.3-23.6V298
			C368,301.1,369.3,303.8,371.4,305.7z"/>
		<path class="st2" d="M491.5,214.2v-17.7c0-3.1-1.2-5.9-3.1-7.9c-2-2-4.8-3.2-7.7-3.2c-3.1,0-5.9,1.2-7.9,3.2c-2,2-3.2,4.8-3.2,7.9
			v65.2c0,13.4,5.4,25.5,14.2,34.1c8.8,8.6,20.8,14,34.2,14c12.2,0,22.9-4.1,31.1-11.9c2.4-2.3,3.9-5.4,4.1-8.6
			c0.2-3.1-0.8-6.1-3.2-8.4c-3.2-2.9-7.1-3.2-10.5-2c-1.9,0.7-3.1,1.7-4.7,3c-4.8,4.2-10.3,5.9-16.8,5.9c-7.3,0-13.9-2.9-18.7-7.6
			c-4.8-4.7-7.7-11.1-7.7-18.3v-25.7h11c-3.4-6.8-5.7-14.2-6.9-22H491.5z"/>
		<path class="st2" d="M537.1,221.1c-1.2-2.7-3.2-4.8-6-6c-1-0.5-2.1-0.7-3.2-0.8c1.7,6.2,4.6,11.8,8.5,16.6c1-1.6,1.6-3.5,1.6-5.5
			C538,223.9,537.7,222.5,537.1,221.1z"/>
		<path class="st3" d="M360.8,245.9c-6.4-1.7-13.1-2.7-20-2.7c-1.8,0-3.5,0.1-5.3,0.3c-11.6,0.8-22.6,4.1-32.2,9.5
			c-13.2,7.4-24,18.6-30.9,32.1c2.2,3.9,4.9,7.4,8,10.6c4.8,4.8,10.7,8.6,17.2,11c2.3-7.5,6.5-14,12.1-19.3c-3.6-0.7-6.9-2-9.7-4
			c-4.2-2.8-7.5-6.9-9.2-12.1h61.9c6.5,0,10.9-4.3,10.9-10.5C363.3,255.6,362.4,250.6,360.8,245.9z"/>
		<path class="st3" d="M534.8,233c0.6-0.6,1.2-1.3,1.6-2.1c-3.9-4.8-6.8-10.4-8.5-16.6c-0.3,0-0.7-0.1-1-0.1h-31.3
			c1.2,7.8,3.6,15.2,6.9,22h24.4C530,236.3,532.7,235,534.8,233z"/>
		<path class="st2" d="M640.9,235.5c-1.9-3-4.1-5.8-6.5-8.3c-5.4-5.4-12-9.6-19.5-11.9c-4.6-1.5-9.6-2.3-14.7-2.3
			c-13.3,0-25.3,5.4-34.1,14.2c-4.9,4.9-8.7,10.7-11.1,17.2c5.2,2,10.7,3.2,16.6,3.2c2.2,0,4.4-0.2,6.5-0.5c1-1.6,2.2-3,3.6-4.4
			c4.8-4.8,11.4-7.7,18.6-7.7c0.8,0,1.7,0,2.5,0.1c6.3,0.6,12,3.4,16.2,7.6c3.7,3.7,6.2,8.5,7.2,13.9c0.3,1.5,0.4,3.1,0.4,4.8
			c0,7.2-2.8,13.8-7.6,18.6c-4.8,4.9-11.4,7.8-18.7,7.8c-7.3,0-13.8-2.9-18.6-7.8c-0.4-0.4-0.8-0.8-1.2-1.3
			c-2.9,0.3-5.9,0.6-8.9,0.6c-5.8,0-11.5-0.7-17-1.9c2.5,6.9,6.4,13.2,11.5,18.3c8.8,8.8,20.8,14.2,34.1,14.2c9.8,0,19-3.7,26.7-9.4
			c1.2,4.8,5.1,8.2,10.4,8.2c3.1,0,6-1.3,8-3.3c2-2,3.2-4.8,3.2-7.9v-35.9C648.5,251.8,645.7,243,640.9,235.5z"/>
		<path class="st3" d="M618.8,242.8c-4.2-4.2-9.9-7-16.2-7.6c-6.6,6.3-15.2,10.6-24.6,11.9c-2.1,0.3-4.3,0.5-6.5,0.5
			c-5.9,0-11.5-1.2-16.6-3.2c-2,5.3-3.2,11-3.2,17c0,5.6,1,10.9,2.8,15.9c5.5,1.2,11.2,1.9,17,1.9c3,0,6-0.2,8.9-0.6
			c17.7-2,33.6-10.1,45.6-22.1C625.1,251.3,622.5,246.5,618.8,242.8z"/>
		<path class="st3" d="M368,259.6v24.4c7.8,5.9,13.6,14.1,16.4,23.7c1-0.5,1.9-1.1,2.7-1.9c1.9-1.9,3.1-4.6,3.1-7.8v-37.1
			c-6.2-5.2-13.2-9.3-20.8-12.4C368.5,252.1,368,255.8,368,259.6z"/>
	</g>
	<g>
		<g>
			<g>
				<path class="st2" d="M108.7,319.1c-3.3-1-7.1-3.8-7.1-9.3c0-3.1,1.5-6,4.1-7.7c1.8-1.2,3.7-1.5,5.8-1.3
					c3.7,0.5,8.3,1.1,11.8-0.1c4.1-1.5,4.9-6,4.9-6l-27-62.5c-0.6-1.5-1.2-3.7-1.2-5.2c0-6.3,4.9-10.8,11.1-10.8
					c5.6,0,8.8,3.1,10.8,8.4l17.1,46l16.5-45.8c1.8-4.7,5-8.5,10.8-8.5c5.7,0,10.6,4.4,10.6,10.3c0,1.8-0.6,4.3-1,5.3L148.3,298
					c-6.6,16.1-13.3,22.1-26.7,22.1C116.6,320.1,112.7,320.3,108.7,319.1z"/>
			</g>
		</g>
	</g>
	<g>
		<path class="st4" d="M518.9,352c0.9,0.9,1.5,2.1,1.5,3.4c0,1.3-0.6,2.5-1.5,3.4c-1,0.9-2.2,1.4-3.6,1.4c-1.4,0-2.7-0.5-3.6-1.4
			c-1-0.9-1.5-2.1-1.5-3.4c0-1.3,0.6-2.5,1.5-3.4c0.9-0.9,2.2-1.4,3.6-1.4C516.7,350.6,518,351.1,518.9,352z"/>
		<path class="st4" d="M552.6,344.6c-0.3-0.2-0.6-0.4-0.9-0.6c-2.7-2.2-5.8-3.2-9.2-3.2c-3.7,0-7,1.6-9.4,3.9
			c-2.4,2.4-3.9,5.6-3.9,8.9l-0.1,0.1c0,0,0,0,0,0v0c0,0,0,0,0,0c0,3.3,1.4,6.5,3.8,8.8c2.4,2.4,5.7,4,9.5,4c3.5,0,6.5-1,9.2-3.2
			c0.5-0.4,1.2-0.9,1.8-1c0.7-0.1,1.5,0,2.3,0.7c1.1,0.9,1.1,2.5-0.1,3.7c-1.6,1.5-3.6,2.7-5.8,3.5c-2.2,0.8-4.6,1.3-7,1.3
			c-5.2,0-9.9-2-13.3-5.2c-3.4-3.2-5.6-7.6-5.6-12.5l0.1-0.2c0,0,0,0,0-0.1c0,0,0,0,0,0c0-4.9,2.1-9.3,5.6-12.5
			c3.4-3.2,8.1-5.1,13.3-5.1c4.9,0,9.6,1.6,12.8,4.6c0.6,0.6,0.9,1.2,1,1.9c0,1.5-1.3,2.3-2,2.4C553.8,345.1,553.2,345,552.6,344.6z
			"/>
		<path class="st4" d="M560.2,360.7c-1-2.2-1.5-4.5-1.5-6.9c0-4.9,2.1-9.4,5.6-12.7c3.5-3.2,8.2-5.2,13.4-5.2c5.2,0,10,2,13.4,5.2
			c3.4,3.2,5.5,7.7,5.5,12.7c0,4.9-2.1,9.3-5.5,12.6c-3.4,3.2-8.1,5.2-13.4,5.2c-2.6,0-5-0.5-7.4-1.4
			C565.6,368.3,562.1,365,560.2,360.7z M563.8,353.8c0,3.5,1.5,6.7,4,9.1c2.5,2.4,6,3.8,9.8,3.8c3.9,0,7.4-1.5,9.8-3.8
			c2.5-2.4,3.9-5.5,3.9-9.1c0-3.6-1.5-6.8-4-9.2c-2.5-2.4-5.9-3.8-9.8-3.8c-3.8,0-7.3,1.4-9.8,3.8
			C565.3,347,563.8,350.2,563.8,353.8z"/>
		<path class="st4" d="M599.3,348.3c0-3.4,1.6-6.5,4.1-8.7c2.5-2.2,5.8-3.6,9.5-3.6c4.5,0,8.5,2.1,11,5.2c1.3-1.5,2.9-2.9,4.8-3.8
			c1.9-0.9,4-1.4,6.2-1.4c3.6,0,6.9,1.3,9.3,3.5c2.4,2.2,4,5.2,4.1,8.5c0,0.1,0,0.2,0,0.3v20.4c0,1.4-1.2,2.4-2.5,2.4
			c-1.4,0-2.6-1-2.6-2.4v-20.6c-0.1-2.1-1.1-3.9-2.7-5.2c-1.6-1.3-3.7-2.1-5.8-2.1c-2.2,0-4.3,0.9-5.8,2.2c-1.5,1.3-2.6,3.2-2.6,5.2
			v20.5c0,1.4-1.2,2.4-2.5,2.4c-1.4,0-2.7-1-2.7-2.4v-20.4c0-2.1-1-4-2.5-5.3c-1.6-1.3-3.6-2.2-5.8-2.2c-2.2,0-4.3,0.8-5.8,2.2
			c-1.5,1.3-2.6,3.2-2.6,5.1v20.6c0,1.4-1.2,2.4-2.5,2.4c-1.4,0-2.6-1-2.6-2.4V348.3z"/>
	</g>
</g>
</svg>
