<svg width="700" height="379" viewBox="0 0 700 379" fill="none" xmlns="http://www.w3.org/2000/svg">
<g clip-path="url(#clip0_1_2)">
<path d="M92.8735 163.629C95.3728 164.014 97.972 164.206 100.571 164.206C113.268 164.206 125.364 159.787 133.762 151.621C134.762 150.66 135.561 149.507 136.261 148.355C133.562 147.874 130.863 147.586 127.963 147.586C113.768 147.682 101.171 153.927 92.8735 163.629Z" fill="#7B5CFF"/>
<path d="M79.6772 133.56C75.7784 129.045 73.479 123.473 73.479 117.805C73.479 117.709 73.479 117.709 73.379 117.709L73.479 117.613C73.479 111.368 76.2782 105.22 80.8769 100.417C85.3756 95.7094 91.6738 92.6353 98.5718 92.3471C105.07 92.0589 110.768 93.5959 116.767 98.2072C118.866 99.8404 121.665 101.762 124.564 102.434C125.964 102.818 127.464 102.818 129.163 102.434C132.362 101.762 135.761 98.7836 136.961 96.0937C138.161 93.4999 138.061 90.4257 136.761 87.6397C136.061 86.1987 135.161 84.8538 133.862 83.5088C125.464 75.3431 113.368 71.2121 100.671 71.2121C87.1751 71.2121 74.8786 76.3037 65.9812 84.6616C57.0837 93.0195 51.5853 104.836 51.5853 117.805H51.6852L51.5853 117.997C51.5853 130.198 56.4839 141.246 64.5816 149.411C68.6804 143.455 73.8789 138.171 79.6772 133.56Z" fill="#7B5CFF"/>
<path d="M188.146 71.2121C174.75 71.2121 162.654 76.3998 153.856 84.7577C145.059 93.1156 139.56 104.836 139.56 117.709C139.56 117.805 139.56 117.997 139.56 118.093C149.257 119.534 158.355 122.608 166.552 127.22H226.035C232.534 127.22 236.932 123.089 236.932 117.133C236.632 104.356 231.234 92.8274 222.436 84.5656C213.439 76.3998 201.442 71.2121 188.146 71.2121ZM163.353 109.639C164.053 107.045 165.253 104.644 166.852 102.626C169.951 98.3033 174.45 95.3252 179.949 93.692C182.648 92.8274 185.547 92.4431 188.646 92.4431C194.844 92.4431 200.443 93.9802 204.841 97.0544C209.34 100.032 212.639 104.356 214.139 109.735H163.353V109.639Z" fill="#7B5CFF"/>
<path d="M206.941 161.228C211.839 159.402 215.538 156.905 218.538 154.311C221.037 152.389 222.336 149.796 222.736 147.394C223.036 144.992 222.336 142.398 221.037 140.381C220.437 139.42 219.637 138.556 218.737 137.787C217.038 136.154 214.139 135.097 210.54 135.578C208.74 135.866 206.741 136.634 204.741 137.979C200.743 141.534 195.344 143.263 188.346 143.263C187.746 143.263 187.147 143.167 186.547 143.167C191.845 149.123 196.244 155.944 199.443 163.437C202.042 162.765 204.642 162.092 206.941 161.228Z" fill="#7B5CFF"/>
<path d="M243.23 69.8672V132.503C243.33 141.534 247.229 149.315 253.328 154.599C259.426 159.979 267.623 163.053 276.921 163.053C283.319 163.053 287.818 158.634 287.818 152.678C287.818 149.892 286.718 147.106 284.819 145.088C282.819 143.167 280.12 141.918 277.021 141.918C270.223 141.918 265.424 138.46 265.424 131.735V94.7488C256.127 88.1201 248.629 79.6661 243.23 69.8672Z" fill="#7B5CFF"/>
<path d="M337.504 71.3082C337.104 71.3082 336.704 71.2121 336.304 71.2121C326.307 71.2121 317.009 74.0942 309.212 79.0897C310.011 79.0897 310.711 79.1858 311.511 79.1858C321.108 79.2818 330.106 76.3037 337.504 71.3082Z" fill="#7B5CFF"/>
<path d="M353.599 97.5347C357.698 100.513 360.797 104.644 362.296 109.639H311.411C303.613 109.639 296.115 108.486 289.017 106.469C288.118 110.12 287.518 113.866 287.518 117.709C287.518 130.582 293.016 142.11 301.814 150.564C310.611 159.018 322.708 164.206 336.104 164.206C343.802 164.206 349.9 163.053 354.899 161.228C359.797 159.402 363.496 156.905 366.495 154.311C368.995 152.389 370.294 149.796 370.694 147.394C370.994 144.992 370.294 142.398 368.995 140.381C368.395 139.42 367.595 138.556 366.695 137.787C364.996 136.154 362.097 135.097 358.498 135.578C356.698 135.866 354.699 136.634 352.699 137.979C348.7 141.534 343.302 143.263 336.304 143.263C330.706 143.263 325.607 141.726 321.508 138.844C317.309 136.154 314.01 132.215 312.311 127.22H374.193C380.691 127.22 385.09 123.089 385.09 117.133C384.79 104.356 379.392 92.8274 370.594 84.5656C370.394 84.3734 370.094 84.1813 369.894 83.8931C364.996 89.1768 359.597 93.7881 353.599 97.5347Z" fill="#7B5CFF"/>
<path d="M493.859 136.346V152.678C493.859 155.656 495.159 158.25 497.258 160.075C499.257 161.9 502.157 163.053 505.256 163.053C508.155 163.053 510.854 161.9 512.754 160.075C514.653 158.25 515.853 155.656 515.853 152.678V148.931C510.054 142.879 502.456 138.46 493.859 136.346Z" fill="#7B5CFF"/>
<path d="M524.35 101.57C529.549 96.5741 536.747 93.5959 544.444 93.5959H544.644C547.743 93.5959 550.643 92.4431 552.742 90.5218C554.742 88.6965 556.141 86.0066 556.141 83.0285C556.141 76.8801 551.942 72.461 544.644 72.461H544.444C530.648 72.461 517.952 77.9369 508.755 86.7751C503.256 92.0589 499.057 98.5915 496.458 105.797C503.856 107.045 510.754 109.351 517.252 112.521C518.752 108.294 521.251 104.644 524.35 101.57Z" fill="#7B5CFF"/>
<path d="M600.029 71.2121C586.732 71.2121 574.736 76.3998 565.938 84.8538C557.141 93.3077 551.642 104.836 551.642 117.709C551.642 130.486 557.141 142.11 565.938 150.564C574.736 159.018 586.732 164.206 600.029 164.206C609.826 164.206 619.023 160.651 626.721 155.175C627.921 159.787 631.819 163.053 637.118 163.053C640.217 163.053 643.116 161.804 645.116 159.883C647.115 157.961 648.315 155.271 648.315 152.293V117.805C648.315 104.932 642.916 93.4038 634.219 84.9498C625.421 76.3998 613.425 71.2121 600.029 71.2121ZM618.623 135.578C613.825 140.285 607.226 143.071 599.929 143.071C592.631 143.071 586.133 140.285 581.334 135.578C576.435 130.966 573.536 124.626 573.536 117.709C573.536 110.696 576.435 104.356 581.334 99.7443C586.133 95.133 592.731 92.3471 599.929 92.3471C607.226 92.3471 613.825 95.133 618.623 99.7443C623.422 104.356 626.221 110.696 626.221 117.709C626.221 124.722 623.422 131.062 618.623 135.578Z" fill="#7B5CFF"/>
<path d="M92.8735 163.629C101.171 153.83 113.767 147.586 127.963 147.586C130.763 147.586 133.562 147.874 136.261 148.355C137.161 146.721 137.661 144.896 137.761 143.167C137.761 140.285 136.661 137.499 134.262 135.578C130.563 132.599 127.364 132.023 124.564 132.792C121.665 133.464 118.866 135.289 116.767 137.019C110.768 141.63 105.07 143.359 98.5718 143.071C91.5738 142.975 85.2756 139.612 80.7769 134.905C80.377 134.521 80.0771 134.137 79.6772 133.656C73.7789 138.171 68.6804 143.551 64.3816 149.507C64.8814 149.988 65.2813 150.468 65.7812 150.948C73.0791 157.577 82.4764 162.092 92.8735 163.629Z" fill="#67E3B8"/>
<path d="M186.347 143.071C180.748 136.73 174.05 131.447 166.452 127.22C158.255 122.705 149.157 119.534 139.46 118.093C139.56 130.774 144.959 142.206 153.756 150.564C162.554 159.018 174.65 164.206 188.046 164.206C192.145 164.206 195.844 163.822 199.143 163.245C196.044 155.848 191.745 149.123 186.347 143.071Z" fill="#67E3B8"/>
<path d="M261.925 40.4704C259.826 38.6452 256.827 37.4923 253.927 37.4923C251.028 37.4923 248.329 38.6452 246.43 40.4704C244.43 42.3918 243.33 45.0817 243.33 48.0598V69.9633C248.629 79.7622 256.227 88.2161 265.324 94.8448V48.0598C265.324 44.9856 263.925 42.3918 261.925 40.4704Z" fill="#67E3B8"/>
<path d="M311.411 79.2818C310.611 79.2818 309.911 79.1858 309.112 79.1858C306.512 80.8189 304.113 82.7403 301.914 84.8538C295.716 90.7139 291.317 98.2072 289.117 106.565C296.215 108.583 303.713 109.735 311.511 109.735C312.211 107.142 313.41 104.74 315.01 102.722C318.109 98.3993 322.608 95.4212 328.106 93.7881C330.805 92.9235 333.705 92.5392 336.804 92.5392C343.002 92.5392 348.6 94.0763 352.999 97.1505C353.199 97.3426 353.399 97.5347 353.699 97.7269C359.697 93.9802 365.096 89.369 369.694 84.1813C361.097 76.5919 349.9 71.7886 337.504 71.5004C330.106 76.3037 321.108 79.2818 311.411 79.2818Z" fill="#67E3B8"/>
<path d="M420.78 134.617C421.08 134.905 421.38 135.289 421.779 135.578C426.578 140.285 433.076 143.071 440.374 143.071C447.672 143.071 454.17 140.285 459.069 135.578C463.867 130.966 466.667 124.626 466.667 117.709C466.667 113.77 465.767 110.024 464.067 106.757C446.472 110.984 431.277 120.975 420.78 134.617Z" fill="#67E3B8"/>
<path d="M488.66 117.805C488.66 113.29 487.961 108.871 486.761 104.74C484.462 97.1505 480.263 90.2336 474.564 84.8538C465.867 76.4959 453.77 71.3082 440.374 71.3082C430.677 71.3082 421.68 74.0942 413.982 78.8976V48.4441C413.982 45.3699 412.882 42.5839 410.983 40.5665C408.983 38.6452 406.284 37.4923 403.085 37.4923C399.986 37.4923 397.187 38.6452 395.287 40.5665C393.288 42.5839 392.088 45.3699 392.088 48.4441V117.805C392.088 130.582 397.486 142.206 406.284 150.66C407.584 151.909 408.883 152.966 410.283 154.023C418.48 160.363 428.877 164.206 440.074 164.302C440.174 164.302 440.374 164.302 440.474 164.302C447.172 164.302 453.47 163.053 459.369 160.555C471.065 155.752 479.963 147.106 485.061 135.77C485.161 135.482 485.261 135.289 485.361 135.001C487.461 129.621 488.66 123.857 488.66 117.805ZM420.78 134.617C416.481 130.102 413.882 124.242 413.882 117.805C413.882 110.792 416.781 104.452 421.68 99.8404C426.478 95.2291 432.976 92.4431 440.274 92.4431C447.572 92.4431 454.07 95.2291 458.969 99.8404C461.068 101.858 462.768 104.163 464.067 106.757C465.667 110.12 466.667 113.77 466.667 117.709C466.667 124.626 463.867 130.966 459.069 135.578C454.17 140.285 447.672 143.071 440.374 143.071C433.076 143.071 426.578 140.285 421.779 135.578C421.48 135.289 421.08 134.905 420.78 134.617Z" fill="#7B5CFF"/>
<path d="M493.859 136.346C502.456 138.46 510.054 142.879 515.853 148.931V120.879C515.853 117.901 516.352 115.115 517.352 112.425C510.854 109.255 503.856 106.949 496.558 105.7C494.859 110.6 493.859 115.692 493.859 121.167V136.346Z" fill="#67E3B8"/>
<path d="M270.523 202.345C270.523 196.196 266.324 191.777 259.026 191.777H258.926C245.13 191.777 232.434 197.253 223.236 206.091C214.039 214.93 208.34 227.13 208.34 240.484V271.994C208.34 274.972 209.64 277.566 211.739 279.391C213.739 281.216 216.638 282.369 219.737 282.369C222.636 282.369 225.336 281.216 227.235 279.391C229.135 277.566 230.334 274.972 230.334 271.994V240.195C230.334 232.702 233.733 225.881 238.832 220.886C244.03 215.89 251.228 212.912 258.926 212.912H259.126C262.225 212.912 265.124 211.759 267.224 209.838C269.223 208.013 270.523 205.323 270.523 202.345Z" fill="#7B5CFF"/>
<path d="M303.213 229.052H289.917C290.617 226.458 291.817 224.056 293.416 222.039C296.515 217.716 301.014 214.737 306.512 213.104C309.212 212.24 312.111 211.855 315.21 211.855C321.408 211.855 327.007 213.393 331.405 216.467C332.905 217.523 334.204 218.676 335.404 220.021C337.204 219.925 338.903 219.733 340.703 219.733C347.601 219.733 354.299 220.694 360.697 222.327C358.198 215.314 354.199 209.069 348.8 204.074C339.903 195.812 327.906 190.624 314.61 190.624C301.214 190.624 289.117 195.812 280.32 204.17C271.522 212.528 266.024 224.248 266.024 237.121C266.024 245.383 268.323 253.165 272.322 259.793C279.22 246.92 290.017 236.161 303.213 229.052Z" fill="#7B5CFF"/>
<path d="M333.405 280.64C338.303 278.815 342.002 276.317 345.001 273.723C347.501 271.802 348.8 269.208 349.2 266.806C349.5 264.405 348.8 261.811 347.501 259.793C346.901 258.833 346.101 257.968 345.201 257.199C343.502 255.566 340.603 254.51 337.004 254.99C335.204 255.278 333.205 256.047 331.205 257.392C327.206 260.946 321.808 262.675 314.81 262.675C313.011 262.675 311.411 262.483 309.711 262.195C304.213 267.19 300.014 273.531 297.615 280.736C302.913 282.657 308.712 283.81 314.71 283.81C322.308 283.714 328.406 282.465 333.405 280.64Z" fill="#7B5CFF"/>
<path d="M413.582 190.624C400.686 190.624 389.189 195.62 381.091 203.69C375.293 209.454 371.094 216.755 369.194 224.921C376.792 227.803 383.79 231.838 389.889 236.737V235.488C389.889 228.859 392.388 222.903 396.587 218.58C400.686 214.257 406.584 211.759 413.582 211.759C420.18 211.759 426.078 214.257 430.177 218.484C434.276 222.711 436.875 228.475 437.175 234.816C437.075 235.104 437.075 235.488 437.075 235.968V272.282C437.075 275.26 438.375 277.854 440.474 279.679C442.474 281.601 445.273 282.657 448.372 282.657C451.271 282.657 454.07 281.601 455.97 279.679C457.869 277.854 459.069 275.26 459.069 272.282V235.488C459.069 222.999 454.07 211.855 445.973 203.69C437.875 195.62 426.578 190.624 413.582 190.624Z" fill="#7B5CFF"/>
<path d="M371.294 279.679C373.293 281.601 376.193 282.657 379.092 282.657C380.891 282.657 382.591 282.177 384.09 281.505C381.291 272.378 375.593 264.501 367.795 258.833V272.282C367.895 275.26 369.194 277.854 371.294 279.679Z" fill="#7B5CFF"/>
<path d="M491.36 191.777V174.773C491.36 171.795 490.16 169.105 488.26 167.184C486.261 165.263 483.462 164.11 480.563 164.11C477.464 164.11 474.664 165.263 472.665 167.184C470.665 169.105 469.466 171.795 469.466 174.773V237.409C469.466 250.283 474.864 261.907 483.662 270.169C492.459 278.43 504.456 283.618 517.852 283.618C530.049 283.618 540.745 279.679 548.943 272.186C551.342 269.976 552.842 266.998 553.042 263.924C553.242 260.946 552.242 258.064 549.843 255.854C546.644 253.069 542.745 252.78 539.346 253.933C537.446 254.606 536.247 255.566 534.647 256.815C529.849 260.85 524.35 262.483 517.852 262.483C510.554 262.483 503.956 259.697 499.157 255.182C494.359 250.667 491.46 244.518 491.46 237.602V212.912H502.456C499.057 206.38 496.758 199.271 495.558 191.777H491.36Z" fill="#7B5CFF"/>
<path d="M536.947 198.406C535.747 195.812 533.747 193.795 530.948 192.642C529.949 192.162 528.849 191.969 527.749 191.873C529.449 197.83 532.348 203.209 536.247 207.821C537.246 206.283 537.846 204.458 537.846 202.537C537.846 201.096 537.546 199.751 536.947 198.406Z" fill="#7B5CFF"/>
<path d="M360.697 222.231C354.299 220.598 347.601 219.637 340.703 219.637C338.903 219.637 337.204 219.733 335.404 219.925C323.807 220.694 312.811 223.864 303.213 229.052C290.017 236.161 279.22 246.92 272.322 259.889C274.522 263.636 277.221 266.998 280.32 270.073C285.119 274.684 291.017 278.334 297.515 280.64C299.814 273.435 304.013 267.19 309.612 262.099C306.013 261.426 302.713 260.178 299.914 258.256C295.715 255.566 292.416 251.627 290.717 246.632H352.599C359.097 246.632 363.496 242.501 363.496 236.545C363.196 231.549 362.296 226.746 360.697 222.231Z" fill="#67E3B8"/>
<path d="M534.647 209.838C535.247 209.262 535.847 208.589 536.247 207.821C532.348 203.209 529.449 197.83 527.749 191.873C527.449 191.873 527.049 191.777 526.75 191.777H495.458C496.658 199.271 499.057 206.38 502.356 212.912H526.75C529.849 213.008 532.548 211.759 534.647 209.838Z" fill="#67E3B8"/>
<path d="M640.717 212.24C638.817 209.358 636.618 206.668 634.219 204.266C628.82 199.078 622.222 195.044 614.724 192.834C610.126 191.393 605.127 190.624 600.029 190.624C586.732 190.624 574.736 195.812 565.938 204.266C561.04 208.973 557.241 214.545 554.841 220.79C560.04 222.711 565.538 223.864 571.437 223.864C573.636 223.864 575.835 223.672 577.935 223.384C578.935 221.846 580.134 220.502 581.534 219.157C586.332 214.545 592.931 211.759 600.128 211.759C600.928 211.759 601.828 211.759 602.628 211.855C608.926 212.432 614.624 215.122 618.823 219.157C622.522 222.711 625.021 227.322 626.021 232.51C626.321 233.951 626.421 235.488 626.421 237.121C626.421 244.038 623.622 250.379 618.823 254.99C614.025 259.697 607.426 262.483 600.128 262.483C592.831 262.483 586.332 259.697 581.534 254.99C581.134 254.606 580.734 254.221 580.334 253.741C577.435 254.029 574.436 254.317 571.437 254.317C565.638 254.317 559.94 253.645 554.442 252.492C556.941 259.121 560.84 265.173 565.938 270.073C574.736 278.526 586.732 283.714 600.029 283.714C609.826 283.714 619.023 280.16 626.721 274.684C627.921 279.295 631.819 282.561 637.118 282.561C640.217 282.561 643.116 281.312 645.116 279.391C647.115 277.47 648.315 274.78 648.315 271.802V237.313C648.315 227.899 645.516 219.445 640.717 212.24Z" fill="#7B5CFF"/>
<path d="M618.623 219.253C614.424 215.218 608.726 212.528 602.428 211.951C595.83 218.004 587.232 222.135 577.835 223.384C575.735 223.672 573.536 223.864 571.337 223.864C565.438 223.864 559.84 222.711 554.741 220.79C552.742 225.881 551.542 231.357 551.542 237.121C551.542 242.501 552.542 247.593 554.342 252.396C559.84 253.549 565.538 254.221 571.337 254.221C574.336 254.221 577.335 254.029 580.234 253.645C597.929 251.724 613.825 243.942 625.821 232.414C624.921 227.418 622.322 222.807 618.623 219.253Z" fill="#67E3B8"/>
<path d="M367.895 235.392V258.833C375.693 264.501 381.491 272.378 384.29 281.601C385.29 281.12 386.19 280.544 386.989 279.775C388.889 277.95 390.089 275.356 390.089 272.282V236.641C383.89 231.645 376.892 227.707 369.294 224.729C368.395 228.187 367.895 231.741 367.895 235.392Z" fill="#67E3B8"/>
<path d="M108.669 292.552C105.37 291.592 101.571 288.902 101.571 283.618C101.571 280.64 103.071 277.854 105.67 276.221C107.469 275.068 109.369 274.78 111.468 274.972C115.167 275.452 119.766 276.029 123.265 274.876C127.364 273.435 128.163 269.112 128.163 269.112L101.171 209.069C100.571 207.628 99.9714 205.515 99.9714 204.074C99.9714 198.022 104.87 193.699 111.068 193.699C116.667 193.699 119.866 196.677 121.865 201.768L138.96 245.96L155.456 201.96C157.255 197.445 160.454 193.795 166.253 193.795C171.951 193.795 176.849 198.022 176.849 203.69C176.849 205.419 176.25 207.821 175.85 208.781L148.258 272.282C141.66 287.749 134.961 293.513 121.565 293.513C116.567 293.513 112.668 293.705 108.669 292.552Z" fill="#7B5CFF"/>
<path d="M518.752 324.159C519.652 325.023 520.251 326.176 520.251 327.425C520.251 328.674 519.652 329.827 518.752 330.691C517.752 331.556 516.552 332.036 515.153 332.036C513.753 332.036 512.454 331.556 511.554 330.691C510.554 329.827 510.054 328.674 510.054 327.425C510.054 326.176 510.654 325.023 511.554 324.159C512.454 323.294 513.753 322.814 515.153 322.814C516.552 322.814 517.852 323.294 518.752 324.159Z" fill="#805CFF"/>
<path d="M552.442 317.05C552.142 316.858 551.842 316.665 551.542 316.473C548.843 314.36 545.744 313.399 542.345 313.399C538.646 313.399 535.347 314.936 532.948 317.146C530.548 319.451 529.049 322.526 529.049 325.696L528.949 325.792C528.949 328.962 530.348 332.036 532.748 334.246C535.147 336.551 538.446 338.089 542.245 338.089C545.744 338.089 548.743 337.128 551.442 335.014C551.942 334.63 552.642 334.15 553.242 334.054C553.942 333.958 554.741 334.054 555.541 334.726C556.641 335.591 556.641 337.128 555.441 338.281C553.842 339.722 551.842 340.875 549.643 341.643C547.444 342.412 545.044 342.892 542.645 342.892C537.446 342.892 532.748 340.971 529.349 337.896C525.95 334.822 523.75 330.595 523.75 325.888L523.85 325.696C523.85 325.696 523.85 325.696 523.85 325.6C523.85 320.892 525.95 316.665 529.449 313.591C532.848 310.517 537.546 308.692 542.745 308.692C547.644 308.692 552.342 310.229 555.541 313.111C556.141 313.687 556.441 314.264 556.541 314.936C556.541 316.377 555.241 317.146 554.542 317.242C553.642 317.53 553.042 317.434 552.442 317.05Z" fill="#805CFF"/>
<path d="M560.04 332.517C559.04 330.403 558.54 328.194 558.54 325.888C558.54 321.181 560.64 316.858 564.139 313.687C567.638 310.613 572.336 308.692 577.535 308.692C582.734 308.692 587.532 310.613 590.931 313.687C594.33 316.761 596.43 321.085 596.43 325.888C596.43 330.595 594.33 334.822 590.931 337.992C587.532 341.067 582.833 342.988 577.535 342.988C574.936 342.988 572.536 342.508 570.137 341.643C565.438 339.818 561.939 336.648 560.04 332.517ZM563.639 325.888C563.639 329.25 565.139 332.324 567.638 334.63C570.137 336.936 573.636 338.281 577.435 338.281C581.334 338.281 584.833 336.84 587.232 334.63C589.732 332.324 591.131 329.346 591.131 325.888C591.131 322.429 589.632 319.355 587.132 317.05C584.633 314.744 581.234 313.399 577.335 313.399C573.536 313.399 570.037 314.744 567.538 317.05C565.139 319.355 563.639 322.429 563.639 325.888Z" fill="#805CFF"/>
<path d="M599.129 320.604C599.129 317.338 600.728 314.36 603.228 312.246C605.727 310.133 609.026 308.788 612.725 308.788C617.224 308.788 621.223 310.805 623.722 313.783C625.021 312.342 626.621 310.997 628.52 310.133C630.42 309.268 632.519 308.788 634.719 308.788C638.318 308.788 641.617 310.037 644.016 312.15C646.415 314.263 648.015 317.146 648.115 320.316C648.115 320.412 648.115 320.508 648.115 320.604V340.202C648.115 341.547 646.915 342.507 645.616 342.507C644.216 342.507 643.016 341.547 643.016 340.202V320.412C642.916 318.394 641.917 316.665 640.317 315.416C638.718 314.167 636.618 313.399 634.519 313.399C632.319 313.399 630.22 314.263 628.72 315.512C627.221 316.761 626.121 318.587 626.121 320.508V340.202C626.121 341.547 624.921 342.507 623.622 342.507C622.222 342.507 620.923 341.547 620.923 340.202V320.604C620.923 318.587 619.923 316.761 618.423 315.512C616.824 314.263 614.824 313.399 612.625 313.399C610.426 313.399 608.326 314.167 606.827 315.512C605.327 316.761 604.227 318.587 604.227 320.412V340.202C604.227 341.547 603.028 342.507 601.728 342.507C600.328 342.507 599.129 341.547 599.129 340.202V320.604Z" fill="#805CFF"/>
</g>
<defs>
<clipPath id="clip0_1_2">
<rect width="700" height="408" fill="white" transform="translate(0 -14)"/>
</clipPath>
</defs>
</svg>
